<?xml version="1.0" encoding="UTF-8" standalone="no"?>
<svg
   viewBox="0 0 89.694963 64.788807"
   version="1.1"
   id="svg20"
   sodipodi:docname="linkedin-mark-white.svg"
   width="89.694962"
   height="64.788803"
   inkscape:version="1.3 (0e150ed6c4, 2023-07-21)"
   xmlns:inkscape="http://www.inkscape.org/namespaces/inkscape"
   xmlns:sodipodi="http://sodipodi.sourceforge.net/DTD/sodipodi-0.dtd"
   xmlns="http://www.w3.org/2000/svg"
   xmlns:svg="http://www.w3.org/2000/svg"
   xmlns:rdf="http://www.w3.org/1999/02/22-rdf-syntax-ns#"
   xmlns:cc="http://creativecommons.org/ns#"
   xmlns:dc="http://purl.org/dc/elements/1.1/">
  <sodipodi:namedview
     id="namedview1"
     pagecolor="#505050"
     bordercolor="#eeeeee"
     borderopacity="1"
     inkscape:showpageshadow="0"
     inkscape:pageopacity="0"
     inkscape:pagecheckerboard="0"
     inkscape:deskcolor="#d1d1d1"
     inkscape:zoom="3.7793828"
     inkscape:cx="60.327311"
     inkscape:cy="77.128996"
     inkscape:window-width="1920"
     inkscape:window-height="1009"
     inkscape:window-x="-8"
     inkscape:window-y="-8"
     inkscape:window-maximized="1"
     inkscape:current-layer="svg20" />
  <metadata
     id="metadata26">
    <rdf:RDF>
      <cc:Work
         rdf:about="">
        <dc:format>image/svg+xml</dc:format>
        <dc:type
           rdf:resource="http://purl.org/dc/dcmitype/StillImage" />
        <dc:title />
      </cc:Work>
    </rdf:RDF>
  </metadata>
  <defs
     id="defs24" />
  <path
     id="path18"
     style="fill:#ffffff;fill-opacity:1"
     d="m 55.205,55.204421 h -9.6 v -15.034 c 0,-3.585 -0.064,-8.2 -4.993,-8.2 -5,0 -5.765,3.906 -5.765,7.939 v 15.294 h -9.6 v -30.916 h 9.216 v 4.225 h 0.129 c 1.87919,-3.213047 5.37333,-5.132071 9.093,-4.994 9.73,0 11.524,6.4 11.524,14.726 z m -40.79,-35.143 c -4.96358,8.91e-4 -7.44952,-5.999402 -3.9408,-9.509385 3.50872,-3.5099827 9.50991,-1.0261914 9.5108,3.937385 5.5e-4,3.076778 -2.49322,5.571448 -5.57,5.572 m 4.8,35.143 h -9.61 v -30.917 h 9.61 z M 59.991,0.0044206 H 4.781 C 2.17166,-0.02502579 0.03185,2.0651101 0,4.6744206 V 60.113421 c 0.0308,2.610568 2.1704,4.702773 4.781,4.675 h 55.21 c 2.61577,0.0328 4.76379,-2.059279 4.8,-4.675 V 4.6704206 C 64.7537,2.0559555 62.6055,-0.03406102 59.991,4.2059894e-4 M 79.970978,53.166313 c 1.693679,0.01682 3.047892,-1.403313 2.950406,-3.094269 0,-2.194517 -1.324025,-3.243008 -4.04035,-3.243008 H 74.492 v 11.489516 h 1.650765 v -5.008376 h 2.028709 l 0.04633,0.06096 3.147912,4.947417 h 1.765367 l -3.386871,-5.12054 z m -1.90923,-1.150902 h -1.914106 v -3.884295 h 2.42616 c 1.253313,0 2.682188,0.204822 2.682188,1.845833 0,1.887284 -1.445943,2.038462 -3.203995,2.038462"
     sodipodi:nodetypes="ccsssccccccccccsscccccccccccccccccscccccccccccccssc" />
  <circle
     style="display:inline;fill:none;fill-opacity:1;fill-rule:evenodd;stroke:#ffffff;stroke-width:1.98;stroke-linecap:round;stroke-linejoin:round;stroke-dasharray:none;stroke-dashoffset:2.06929;stroke-opacity:1;paint-order:fill markers stroke"
     id="path8"
     cx="78.286591"
     cy="52.422581"
     r="10.418368" />
</svg>
